<?xml version="1.0" encoding="UTF-8"?>
<!DOCTYPE svg PUBLIC "-//W3C//DTD SVG 1.1//EN" "http://www.w3.org/Graphics/SVG/1.1/DTD/svg11.dtd">
<svg xmlns="http://www.w3.org/2000/svg" version="1.1" width="636px" height="199px" style="shape-rendering:geometricPrecision; text-rendering:geometricPrecision; image-rendering:optimizeQuality; fill-rule:evenodd; clip-rule:evenodd" xmlns:xlink="http://www.w3.org/1999/xlink">
<g><path style="opacity:1" fill="#55bbbb" d="M 0.5,-0.5 C 211.833,-0.5 423.167,-0.5 634.5,-0.5C 634.5,0.5 634.5,1.5 634.5,2.5C 423.167,2.5 211.833,2.5 0.5,2.5C 0.5,1.5 0.5,0.5 0.5,-0.5 Z"/></g>
<g><path style="opacity:1" fill="#5abdbd" d="M 0.5,2.5 C 211.833,2.5 423.167,2.5 634.5,2.5C 634.5,3.83333 634.5,5.16667 634.5,6.5C 423.167,6.5 211.833,6.5 0.5,6.5C 0.5,5.16667 0.5,3.83333 0.5,2.5 Z"/></g>
<g><path style="opacity:1" fill="#61bfbf" d="M 0.5,6.5 C 211.833,6.5 423.167,6.5 634.5,6.5C 634.5,8.16667 634.5,9.83333 634.5,11.5C 423.167,11.5 211.833,11.5 0.5,11.5C 0.5,9.83333 0.5,8.16667 0.5,6.5 Z"/></g>
<g><path style="opacity:1" fill="#67c2c2" d="M 0.5,11.5 C 211.833,11.5 423.167,11.5 634.5,11.5C 634.5,12.8333 634.5,14.1667 634.5,15.5C 423.167,15.5 211.833,15.5 0.5,15.5C 0.5,14.1667 0.5,12.8333 0.5,11.5 Z"/></g>
<g><path style="opacity:1" fill="#6dc4c4" d="M 0.5,15.5 C 211.833,15.5 423.167,15.5 634.5,15.5C 634.5,16.8333 634.5,18.1667 634.5,19.5C 423.167,19.5 211.833,19.5 0.5,19.5C 0.5,18.1667 0.5,16.8333 0.5,15.5 Z"/></g>
<g><path style="opacity:1" fill="#72c6c6" d="M 0.5,19.5 C 211.833,19.5 423.167,19.5 634.5,19.5C 634.5,20.5 634.5,21.5 634.5,22.5C 423.167,22.5 211.833,22.5 0.5,22.5C 0.5,21.5 0.5,20.5 0.5,19.5 Z"/></g>
<g><path style="opacity:1" fill="#75c8c7" d="M 0.5,22.5 C 211.833,22.5 423.167,22.5 634.5,22.5C 634.5,23.1667 634.5,23.8333 634.5,24.5C 423.167,24.5 211.833,24.5 0.5,24.5C 0.5,23.8333 0.5,23.1667 0.5,22.5 Z"/></g>
<g><path style="opacity:1" fill="#7ac9c9" d="M 0.5,24.5 C 211.833,24.5 423.167,24.5 634.5,24.5C 634.5,25.8333 634.5,27.1667 634.5,28.5C 423.167,28.5 211.833,28.5 0.5,28.5C 0.5,27.1667 0.5,25.8333 0.5,24.5 Z"/></g>
<g><path style="opacity:1" fill="#80cccc" d="M 0.5,28.5 C 211.833,28.5 423.167,28.5 634.5,28.5C 634.5,30.1667 634.5,31.8333 634.5,33.5C 423.167,33.5 211.833,33.5 0.5,33.5C 0.5,31.8333 0.5,30.1667 0.5,28.5 Z"/></g>
<g><path style="opacity:1" fill="#86cfcf" d="M 0.5,33.5 C 211.833,33.5 423.167,33.5 634.5,33.5C 634.5,34.8333 634.5,36.1667 634.5,37.5C 423.167,37.5 211.833,37.5 0.5,37.5C 0.5,36.1667 0.5,34.8333 0.5,33.5 Z"/></g>
<g><path style="opacity:1" fill="#8cd0d0" d="M 0.5,37.5 C 211.833,37.5 423.167,37.5 634.5,37.5C 634.5,38.8333 634.5,40.1667 634.5,41.5C 423.167,41.5 211.833,41.5 0.5,41.5C 0.5,40.1667 0.5,38.8333 0.5,37.5 Z"/></g>
<g><path style="opacity:1" fill="#92d3d3" d="M 0.5,41.5 C 211.833,41.5 423.167,41.5 634.5,41.5C 634.5,42.8333 634.5,44.1667 634.5,45.5C 423.167,45.5 211.833,45.5 0.5,45.5C 0.5,44.1667 0.5,42.8333 0.5,41.5 Z"/></g>
<g><path style="opacity:1" fill="#98d5d5" d="M 0.5,45.5 C 211.833,45.5 423.167,45.5 634.5,45.5C 634.5,47.1667 634.5,48.8333 634.5,50.5C 423.167,50.5 211.833,50.5 0.5,50.5C 0.5,48.8333 0.5,47.1667 0.5,45.5 Z"/></g>
<g><path style="opacity:1" fill="#9fd8d8" d="M 0.5,50.5 C 211.833,50.5 423.167,50.5 634.5,50.5C 634.5,52.1667 634.5,53.8333 634.5,55.5C 423.167,55.5 211.833,55.5 0.5,55.5C 0.5,53.8333 0.5,52.1667 0.5,50.5 Z"/></g>
<g><path style="opacity:1" fill="#a6dbdb" d="M 0.5,55.5 C 211.833,55.5 423.167,55.5 634.5,55.5C 634.5,56.8333 634.5,58.1667 634.5,59.5C 423.167,59.5 211.833,59.5 0.5,59.5C 0.5,58.1667 0.5,56.8333 0.5,55.5 Z"/></g>
<g><path style="opacity:1" fill="#abdddd" d="M 0.5,59.5 C 211.833,59.5 423.167,59.5 634.5,59.5C 634.5,60.8333 634.5,62.1667 634.5,63.5C 423.167,63.5 211.833,63.5 0.5,63.5C 0.5,62.1667 0.5,60.8333 0.5,59.5 Z"/></g>
<g><path style="opacity:1" fill="#b0dfdf" d="M 0.5,63.5 C 211.833,63.5 423.167,63.5 634.5,63.5C 634.5,64.5 634.5,65.5 634.5,66.5C 423.167,66.5 211.833,66.5 0.5,66.5C 0.5,65.5 0.5,64.5 0.5,63.5 Z"/></g>
<g><path style="opacity:1" fill="#b4e1e0" d="M 0.5,66.5 C 211.833,66.5 423.167,66.5 634.5,66.5C 423.503,68.4989 212.169,69.1656 0.5,68.5C 0.5,67.8333 0.5,67.1667 0.5,66.5 Z"/></g>
<g><path style="opacity:1" fill="#b8e2e2" d="M 634.5,-0.5 C 634.833,-0.5 635.167,-0.5 635.5,-0.5C 635.5,22.8333 635.5,46.1667 635.5,69.5C 634.596,70.209 634.263,71.209 634.5,72.5C 423.167,72.5 211.833,72.5 0.5,72.5C 0.5,71.1667 0.5,69.8333 0.5,68.5C 212.169,69.1656 423.503,68.4989 634.5,66.5C 634.5,65.5 634.5,64.5 634.5,63.5C 634.5,62.1667 634.5,60.8333 634.5,59.5C 634.5,58.1667 634.5,56.8333 634.5,55.5C 634.5,53.8333 634.5,52.1667 634.5,50.5C 634.5,48.8333 634.5,47.1667 634.5,45.5C 634.5,44.1667 634.5,42.8333 634.5,41.5C 634.5,40.1667 634.5,38.8333 634.5,37.5C 634.5,36.1667 634.5,34.8333 634.5,33.5C 634.5,31.8333 634.5,30.1667 634.5,28.5C 634.5,27.1667 634.5,25.8333 634.5,24.5C 634.5,23.8333 634.5,23.1667 634.5,22.5C 634.5,21.5 634.5,20.5 634.5,19.5C 634.5,18.1667 634.5,16.8333 634.5,15.5C 634.5,14.1667 634.5,12.8333 634.5,11.5C 634.5,9.83333 634.5,8.16667 634.5,6.5C 634.5,5.16667 634.5,3.83333 634.5,2.5C 634.5,1.5 634.5,0.5 634.5,-0.5 Z"/></g>
<g><path style="opacity:1" fill="#bee5e5" d="M -0.5,-0.5 C -0.166667,-0.5 0.166667,-0.5 0.5,-0.5C 0.5,0.5 0.5,1.5 0.5,2.5C 0.5,3.83333 0.5,5.16667 0.5,6.5C 0.5,8.16667 0.5,9.83333 0.5,11.5C 0.5,12.8333 0.5,14.1667 0.5,15.5C 0.5,16.8333 0.5,18.1667 0.5,19.5C 0.5,20.5 0.5,21.5 0.5,22.5C 0.5,23.1667 0.5,23.8333 0.5,24.5C 0.5,25.8333 0.5,27.1667 0.5,28.5C 0.5,30.1667 0.5,31.8333 0.5,33.5C 0.5,34.8333 0.5,36.1667 0.5,37.5C 0.5,38.8333 0.5,40.1667 0.5,41.5C 0.5,42.8333 0.5,44.1667 0.5,45.5C 0.5,47.1667 0.5,48.8333 0.5,50.5C 0.5,52.1667 0.5,53.8333 0.5,55.5C 0.5,56.8333 0.5,58.1667 0.5,59.5C 0.5,60.8333 0.5,62.1667 0.5,63.5C 0.5,64.5 0.5,65.5 0.5,66.5C 0.5,67.1667 0.5,67.8333 0.5,68.5C 0.5,69.8333 0.5,71.1667 0.5,72.5C 211.833,72.5 423.167,72.5 634.5,72.5C 634.5,74.1667 634.5,75.8333 634.5,77.5C 423.167,77.5 211.833,77.5 0.5,77.5C 0.166667,77.5 -0.166667,77.5 -0.5,77.5C -0.5,51.5 -0.5,25.5 -0.5,-0.5 Z"/></g>
<g><path style="opacity:1" fill="#c5e8e8" d="M 0.5,77.5 C 211.833,77.5 423.167,77.5 634.5,77.5C 634.5,78.8333 634.5,80.1667 634.5,81.5C 423.167,81.5 211.833,81.5 0.5,81.5C 0.5,80.1667 0.5,78.8333 0.5,77.5 Z"/></g>
<g><path style="opacity:1" fill="#cbeaea" d="M 0.5,81.5 C 211.833,81.5 423.167,81.5 634.5,81.5C 634.5,83.1667 634.5,84.8333 634.5,86.5C 423.167,86.5 211.833,86.5 0.5,86.5C 0.5,84.8333 0.5,83.1667 0.5,81.5 Z"/></g>
<g><path style="opacity:1" fill="#d1ecec" d="M 0.5,86.5 C 211.833,86.5 423.167,86.5 634.5,86.5C 634.5,87.8333 634.5,89.1667 634.5,90.5C 423.167,90.5 211.833,90.5 0.5,90.5C 0.5,89.1667 0.5,87.8333 0.5,86.5 Z"/></g>
<g><path style="opacity:1" fill="#d7efee" d="M 0.5,90.5 C 211.833,90.5 423.167,90.5 634.5,90.5C 634.5,91.8333 634.5,93.1667 634.5,94.5C 423.167,94.5 211.833,94.5 0.5,94.5C 0.5,93.1667 0.5,91.8333 0.5,90.5 Z"/></g>
<g><path style="opacity:1" fill="#ddf1f1" d="M 635.5,69.5 C 635.5,78.1667 635.5,86.8333 635.5,95.5C 634.596,96.209 634.263,97.209 634.5,98.5C 423.167,98.5 211.833,98.5 0.5,98.5C 0.5,97.1667 0.5,95.8333 0.5,94.5C 211.833,94.5 423.167,94.5 634.5,94.5C 634.5,93.1667 634.5,91.8333 634.5,90.5C 634.5,89.1667 634.5,87.8333 634.5,86.5C 634.5,84.8333 634.5,83.1667 634.5,81.5C 634.5,80.1667 634.5,78.8333 634.5,77.5C 634.5,75.8333 634.5,74.1667 634.5,72.5C 634.263,71.209 634.596,70.209 635.5,69.5 Z"/></g>
<g><path style="opacity:1" fill="#eaf6f6" d="M -0.5,77.5 C -0.166667,77.5 0.166667,77.5 0.5,77.5C 0.5,78.8333 0.5,80.1667 0.5,81.5C 0.5,83.1667 0.5,84.8333 0.5,86.5C 0.5,87.8333 0.5,89.1667 0.5,90.5C 0.5,91.8333 0.5,93.1667 0.5,94.5C 0.5,95.8333 0.5,97.1667 0.5,98.5C 0.5,99.1667 0.5,99.8333 0.5,100.5C 0.5,101.5 0.5,102.5 0.5,103.5C 211.833,103.5 423.167,103.5 634.5,103.5C 634.5,102.5 634.5,101.5 634.5,100.5C 634.5,99.8333 634.5,99.1667 634.5,98.5C 634.263,97.209 634.596,96.209 635.5,95.5C 635.5,99.8333 635.5,104.167 635.5,108.5C 635.167,108.5 634.833,108.5 634.5,108.5C 423.167,108.5 211.833,108.5 0.5,108.5C 0.767809,106.901 0.434475,105.568 -0.5,104.5C -0.5,95.5 -0.5,86.5 -0.5,77.5 Z"/></g>
<g><path style="opacity:1" fill="#e4f4f4" d="M 0.5,100.5 C 211.833,100.5 423.167,100.5 634.5,100.5C 634.5,101.5 634.5,102.5 634.5,103.5C 423.167,103.5 211.833,103.5 0.5,103.5C 0.5,102.5 0.5,101.5 0.5,100.5 Z"/></g>
<g><path style="opacity:1" fill="#e1f3f2" d="M 0.5,98.5 C 211.833,98.5 423.167,98.5 634.5,98.5C 634.5,99.1667 634.5,99.8333 634.5,100.5C 423.167,100.5 211.833,100.5 0.5,100.5C 0.5,99.8333 0.5,99.1667 0.5,98.5 Z"/></g>
<g><path style="opacity:1" fill="#eff9f8" d="M 0.5,108.5 C 211.833,108.5 423.167,108.5 634.5,108.5C 634.5,109.167 634.5,109.833 634.5,110.5C 422.831,111.166 211.497,110.499 0.5,108.5 Z"/></g>
<g><path style="opacity:1" fill="#f6fbfb" d="M 634.5,108.5 C 634.833,108.5 635.167,108.5 635.5,108.5C 635.5,110.5 635.5,112.5 635.5,114.5C 424.042,116.497 212.375,117.164 0.5,116.5C 0.5,115.167 0.5,113.833 0.5,112.5C 212.169,113.166 423.503,112.499 634.5,110.5C 634.5,109.833 634.5,109.167 634.5,108.5 Z"/></g>
<g><path style="opacity:1" fill="#f2fafa" d="M -0.5,104.5 C 0.434475,105.568 0.767809,106.901 0.5,108.5C 211.497,110.499 422.831,111.166 634.5,110.5C 423.503,112.499 212.169,113.166 0.5,112.5C 0.166667,112.5 -0.166667,112.5 -0.5,112.5C -0.5,109.833 -0.5,107.167 -0.5,104.5 Z"/></g>
<g><path style="opacity:1" fill="#fefefe" d="M -0.5,112.5 C -0.166667,112.5 0.166667,112.5 0.5,112.5C 0.5,113.833 0.5,115.167 0.5,116.5C 212.375,117.164 424.042,116.497 635.5,114.5C 635.5,142.5 635.5,170.5 635.5,198.5C 423.5,198.5 211.5,198.5 -0.5,198.5C -0.5,169.833 -0.5,141.167 -0.5,112.5 Z"/></g>
</svg>
